        <svg
          viewBox="0 0 56 48"
          fill="none"
          xmlns="http://www.w3.org/2000/svg"
        >
          <path
            d="M54.6792 20.0076C54.2152 18.2806 53.3559 16.6853 52.1692 15.3476C50.686 13.7263 48.7483 12.5901 46.6092 12.0876C46.0616 11.94 45.5032 11.8363 44.9392 11.7776L44.0992 11.6776C42.3678 8.84605 40.0821 6.39362 37.3792 4.4676C33.9397 2.01595 29.9142 0.515428 25.7092 0.117598C24.5793 0.00892496 23.4435 -0.0244821 22.3092 0.0175977C21.7392 0.0175977 21.1692 0.127598 20.5992 0.187598C20.019 0.227116 19.4435 0.317463 18.8792 0.457598L17.1792 0.847598C16.8992 0.917598 16.6092 0.977598 16.3292 1.0576L15.4992 1.3576L13.8292 2.0076C13.2744 2.23242 12.7364 2.49642 12.2192 2.7976C11.6892 3.0876 11.1492 3.3476 10.6292 3.6576L9.15916 4.6876L8.41916 5.2176C8.17916 5.3976 7.96916 5.6176 7.73916 5.8276L6.41916 7.0776C5.99893 7.51674 5.60173 7.97736 5.22916 8.4576C4.8288 8.9109 4.46121 9.39212 4.12916 9.8976C3.44937 10.8841 2.85073 11.9242 2.33916 13.0076C0.325429 17.2384 -0.411289 21.9646 0.219159 26.6076C0.345374 27.6924 0.556013 28.7656 0.849159 29.8176C0.989159 30.3376 1.13916 30.8176 1.27916 31.3676C1.44055 31.8669 1.62746 32.3575 1.83916 32.8376C2.03916 33.3176 2.22916 33.8376 2.42916 34.2576C2.62916 34.6776 2.89916 35.1476 3.12916 35.5976C3.5856 36.4743 4.10008 37.3195 4.66916 38.1276C6.71937 40.823 9.33364 43.0379 12.3292 44.6176C14.2366 45.6744 16.2738 46.4779 18.3892 47.0076C21.3345 47.7427 24.4026 47.8416 27.3892 47.2976C29.9611 46.8284 32.4442 45.9613 34.7492 44.7276C38.5275 42.759 41.7367 39.8528 44.0692 36.2876L44.3292 35.8676C44.5157 35.8775 44.7026 35.8775 44.8892 35.8676C47.8054 35.5121 50.5051 34.1464 52.5192 32.0076C53.1317 31.3269 53.6497 30.5667 54.0592 29.7476C54.3583 29.0616 54.6122 28.3568 54.8192 27.6376C54.9292 26.9876 55.0192 26.3976 55.0792 25.8576C55.094 25.6212 55.094 25.384 55.0792 25.1476V24.8376C55.2248 23.2166 55.0895 21.5826 54.6792 20.0076ZM6.17916 15.0076C6.96832 13.1788 8.04904 11.4902 9.37916 10.0076L10.4492 9.0076C10.6292 8.8376 10.7992 8.6476 10.9892 8.4876L11.5892 8.0376L12.7892 7.1376C13.2092 6.8676 13.6692 6.6376 14.0992 6.3876C14.9654 5.83947 15.8831 5.37728 16.8392 5.0076L17.5292 4.7376L18.2692 4.5576L19.7192 4.1876C21.626 3.77098 23.5855 3.64956 25.5292 3.8276C26.4669 3.90999 27.3987 4.05026 28.3192 4.2476C29.2081 4.47636 30.0829 4.75684 30.9392 5.0876C32.557 5.7141 34.0919 6.53692 35.5092 7.5376C37.2357 8.8245 38.7506 10.3732 39.9992 12.1276C39.8592 12.1276 39.7192 12.1976 39.5892 12.2476C37.2418 13.0025 35.146 14.3859 33.5292 16.2476C33.1096 16.7412 32.7379 17.2736 32.4192 17.8376C32.2533 18.1294 32.1031 18.4298 31.9692 18.7376L31.6592 19.5576C31.4157 20.2666 31.2219 20.9917 31.0792 21.7276C26.4392 21.5776 21.2592 21.5376 16.5792 21.4876C11.0392 21.4276 7.16916 21.3476 4.57916 21.4876C4.57916 21.1976 4.57916 20.9076 4.57916 20.6176C4.83182 18.6594 5.37092 16.749 6.17916 14.9476V15.0076ZM32.3992 40.2076C28.5016 42.3364 23.9633 42.9761 19.6292 42.0076C17.9922 41.6036 16.4081 41.0095 14.9092 40.2376C12.5433 39.0806 10.4425 37.4463 8.73916 35.4376C8.51916 35.1476 8.30916 34.8676 8.09916 34.5476C7.88916 34.2276 7.68916 33.8676 7.48916 33.5476L6.85916 32.4076L6.34916 31.2576C6.16916 30.8676 5.99916 30.4676 5.81916 30.0776C5.63916 29.6876 5.56916 29.2376 5.43916 28.8176C5.30916 28.3976 5.14916 27.9776 5.06916 27.5376C4.98916 27.0976 4.90916 26.6476 4.81916 26.1976C4.74512 25.8683 4.69499 25.5341 4.66916 25.1976C7.25916 25.3876 11.0992 25.4076 16.5492 25.4676C21.1892 25.4676 26.3192 25.5976 30.9192 25.5576C31.0456 26.8474 31.3834 28.1076 31.9192 29.2876C32.6613 30.9407 33.7937 32.3889 35.2192 33.5076C35.7532 33.9332 36.3256 34.3082 36.9292 34.6276C37.3846 34.8676 37.8596 35.0684 38.3492 35.2276L38.7392 35.3476C36.9477 37.3491 34.7973 38.9975 32.3992 40.2076Z"
            fill="#193965"
          />
          <path
            d="M48.8392 20.1475C48.5792 18.5775 48.0392 17.4875 47.1992 17.5775C46.3592 17.6675 46.0692 18.7875 45.9992 20.2975C45.9092 21.5775 45.9292 23.1475 45.9392 24.6475L45.8692 24.5575C44.5792 22.9275 43.1992 21.0075 41.9992 19.6475C41.3992 18.9275 40.6692 17.8775 39.6492 17.7575C38.3992 17.6075 37.9992 19.4075 37.8892 20.3275C37.6555 22.0403 37.5651 23.7696 37.6192 25.4975C37.6192 28.9275 37.4992 30.0375 39.2092 30.0675C40.9192 30.0975 40.8292 28.9075 40.8192 25.4975C40.8192 24.4975 40.8192 23.4975 40.8192 22.4975C41.6592 23.7575 42.6792 25.0775 43.5892 26.2675C44.2292 27.0975 44.8492 27.9475 45.5192 28.7575C46.0592 29.4075 46.6292 30.1375 47.5192 30.0875C47.7295 30.0935 47.9386 30.0537 48.132 29.9708C48.3255 29.8879 48.4985 29.7639 48.6392 29.6075C48.8922 29.1672 49.0169 28.6649 48.9992 28.1575C49.0592 27.2575 49.0492 26.3575 49.0492 25.4675C49.1183 23.6914 49.0481 21.9126 48.8392 20.1475Z"
            fill="white"
          />
        </svg>
